<svg xmlns="http://www.w3.org/2000/svg" viewBox="0 0 133.99 102.69"><defs><style>.cls-1{fill:#fff;}.cls-2{fill:#9d9d9c;stroke:#575756;stroke-miterlimit:10;}.cls-3{fill:#3c3c3b;}.cls-4{fill:#ededed;}.cls-5{fill:#575756;}</style></defs><title>awards</title><g id="Layer_2" data-name="Layer 2"><g id="awards"><rect class="cls-1" width="133.99" height="102.69"/><polygon class="cls-2" points="74.4 49.6 98.91 88.26 85.56 83.08 81.78 96.14 68.14 52.09 74.4 49.6"/><polygon class="cls-2" points="61.27 49.07 45.78 92.17 57.91 84.21 64.74 96.15 68.11 50.14 61.27 49.07"/><polygon class="cls-1" points="89.44 58.53 81.02 54.82 83.53 63.67 76.3 57.98 76.54 67.18 70.95 59.87 68.89 68.84 65.29 60.37 61.07 68.54 59.69 59.44 53.57 66.31 54.5 57.16 46.86 62.29 50.03 53.65 41.36 56.72 46.58 49.14 37.41 49.96 44.36 43.92 35.28 42.43 43.51 38.31 35.08 34.6 44.08 32.66 36.84 26.98 46.03 27.33 40.44 20.02 49.26 22.65 45.65 14.19 53.54 18.93 52.15 9.83 58.61 16.38 59.53 7.22 64.16 15.18 67.32 6.54 69.83 15.39 75.05 7.81 75.27 17.01 82.21 10.96 80.14 19.93 88.36 15.8 84.13 23.97 93.12 22.01 86.99 28.87 96.18 29.21 88.54 34.34 97.36 36.95 88.68 40.01 96.57 44.74 87.41 45.54 93.88 52.09 84.8 50.58 89.44 58.53"/><path class="cls-3" d="M89.82,58.19,81.4,54.48c-.25-.11-1.12,0-1,.46l2.52,8.85L84,63.38,76.8,57.69c-.31-.24-1.12,0-1.11.41l.24,9.2L77.11,67l-5.59-7.31c-.25-.33-1.09-.18-1.18.23l-2.06,9,1.22-.14-3.59-8.47c-.17-.4-1-.32-1.18,0L60.5,68.46l1.18,0-1.37-9.1c-.07-.42-.91-.26-1.1,0l-6.13,6.87,1.1.15.93-9.15c0-.47-.73-.4-1-.23L46.49,62l1,.23,3.17-8.64c.16-.42-.66-.36-.84-.3l-4.34,1.54c-.84.3-1.8.54-2.61.92-1.1.51-1.15.38-1.22.73,0,0,2.54-3,2.91-3.51l2.61-3.79c.21-.31-.24-.48-.47-.46-1.41.13-8.84.44-8.86,1,0-.51,5.89-4.72,7-5.71.29-.25.06-.5-.23-.54-1.25-.21-8.82-1.69-8.9-1.2,0-.3,6.9-3.16,8.17-3.79.3-.15.32-.46,0-.59l-4.21-1.86a29.29,29.29,0,0,0-4.24-1.48c.32.67,7.11-1.27,8.71-1.61.26-.06.79-.36.42-.65L41,29.53c-.64-.5-3.82-2.51-3.79-2.46.26.5,2.86.41,4.18.46l4.6.18c.22,0,.93-.25.67-.59L41,19.81l-1,.55L48.87,23c.21.07,1.18,0,1-.46l-3.61-8.46-1.11.4L53,19.21c.29.17,1.18.09,1.11-.4l-1.39-9.1L51.58,10,58,16.59c.25.25,1.13.23,1.18-.23l.92-9.16L59,7.44l4.63,8c.22.39,1,.12,1.18-.23l3.16-8.64-1.22.14,2.51,8.85c.13.47,1,.25,1.18,0l5.21-7.58-1.18,0,.23,9.2c0,.46.91.21,1.1.05l6.93-6L81.6,11l-2.07,9c-.12.5.77.34,1,.23l4.11-2.06a27.38,27.38,0,0,0,2.48-1.25l1.18-.59c.48-.15.44-.25-.1-.31-.09.27-2.07,3-2.5,3.84l-2.12,4.08c-.2.4.36.5.64.44,1.51-.33,8.62-1.46,8.6-2.16,0-.37-3,2.79-3.23,3.1L86.5,28.7c-.3.35,0,.54.39.55,1.38.05,8.87.66,8.94.06,0,.39-6.44,3.95-7.66,4.77-.23.16-.39.48,0,.59,1.11.33,8.76,2.6,8.77,2.3,0,0-7.15,2.26-8.47,2.72-.2.08-.6.41-.27.61l3.95,2.36c.78.46,4,1.87,4.12,2-.2-.25-.19-.13-1.4-.14-.91,0-1.86.16-2.76.24l-4.59.4c-.17,0-1,.27-.67.59L93.3,52.3l.83-.59-9.08-1.5c-.28-.05-1.07.17-.83.58l4.64,8c.24.41,1.43.06,1.15-.42l-4.64-8-.82.59,9.08,1.5c.21,0,1.17-.23.82-.59L91.21,48.6a29.61,29.61,0,0,0-3.45-2.93c.07.46,7-.4,8.72-.55.22,0,1.07-.38.59-.67-1-.61-7.91-4.42-7.91-4.41s7-2.28,8.43-2.77c.28-.1.61-.52.15-.66C96.61,36.28,89,34.24,89,34.27c0-.27,6.33-4,7.52-4.8.45-.3.16-.62-.27-.63-1.33-.05-8.93-.36-8.89-.12-.06-.43,5.23-5.44,6.21-6.54.36-.4-.19-.61-.55-.53-1.42.31-8.69,1.82-8.58,2.1-.13-.33,3.78-6.57,4.46-7.87.29-.56-.68-.46-.94-.33l-8.22,4.13,1,.23,2.07-9c.12-.54-.89-.32-1.09-.15l-6.94,6.05,1.1.05-.23-9.2c0-.5-1-.19-1.18,0l-5.21,7.58,1.17,0-2.5-8.85c-.14-.5-1.09-.24-1.23.14L63.55,15.2,64.73,15,60.1,7c-.19-.33-1.14-.16-1.18.23L58,16.4l1.18-.23L52.72,9.62c-.27-.27-1.27-.2-1.19.33l1.39,9.1L54,18.64,46.14,13.9c-.23-.14-1.3-.06-1.11.41l3.61,8.46,1-.46-8.82-2.62c-.24-.08-1.3.1-1,.55l2.8,3.65c.4.52,3,3.71,3,3.3s-7.11-.53-8.76-.59c-.29,0-1,.34-.59.66,1.13.89,7.3,4.94,7.34,5.33,0-.32-7.19,1.33-8.67,1.65-.34.08-.82.48-.31.7,1.1.49,8.3,3.49,8.31,3.41,0,.34-6.82,3.19-8.1,3.83-.38.19-.26.56.12.62,1.24.2,8.86,1.38,8.85,1.25,0,.46-5.86,4.79-7,5.74-.34.29.07.57.39.55,1.34-.12,8.88-.77,8.83-1,.12.5-4.51,6.07-5.36,7.29-.32.46.57.47.8.39,1.56-.55,8.31-2.68,8.17-3.13S48,57.59,47.83,58l-1.58,4.32c-.18.46.79.35,1,.23l7.64-5.13-1-.23L53,66.33c-.05.52.87.4,1.09.15l6.13-6.87-1.1,0,1.38,9.1c.07.46,1,.26,1.17,0l4.23-8.17-1.18,0L68.28,69c.18.43,1.12.31,1.22-.14l2.06-9-1.18.23L76,67.39c.26.35,1.19.15,1.18-.33l-.24-9.2-1.1.4L83,64c.25.19,1.24.05,1.11-.41L81.63,54.7l-1,.46,8.42,3.71C89.48,59.06,90.5,58.49,89.82,58.19Z"/><circle class="cls-4" cx="66.2" cy="37.32" r="21.13"/><path class="cls-5" d="M84.63,26.68A24,24,0,0,1,87.54,43,20.07,20.07,0,0,1,84,51a20.33,20.33,0,0,1-6.63,5.71,21.34,21.34,0,0,1-8.32,2.39,24.28,24.28,0,0,1-8.46-.89,23.76,23.76,0,0,1-13.42-9.91,21.3,21.3,0,0,1-2.77-16.81,22.45,22.45,0,0,1,3.77-8,21.54,21.54,0,0,1,15.07-8.56,20.16,20.16,0,0,1,8.67,1A23.8,23.8,0,0,1,84.63,26.68Zm-.26.15a18.38,18.38,0,0,0-5.55-5.95,19.69,19.69,0,0,0-7.41-3,21.84,21.84,0,0,0-15,2.54,20.37,20.37,0,0,0-9.28,11.81,21.05,21.05,0,0,0,1.45,15.26,18.88,18.88,0,0,0,12.25,9.79,18.58,18.58,0,0,0,8,.18,21.35,21.35,0,0,0,7.29-2.9,23.34,23.34,0,0,0,9.55-12,19.82,19.82,0,0,0,1.08-7.93A18.23,18.23,0,0,0,84.37,26.83Z"/></g></g></svg>