<svg xmlns="http://www.w3.org/2000/svg" viewBox="0 0 133.99 102.69"><defs><style>.cls-1{fill:#fff;}.cls-2{fill:#878787;}.cls-3{fill:#575756;}.cls-4{fill:#dadada;}</style></defs><title>education</title><g id="Layer_2" data-name="Layer 2"><g id="education"><rect class="cls-1" width="133.99" height="102.69"/><path class="cls-2" d="M102.82,46.6H32V67.9h0c0,.13,0,.25,0,.38,0,7.81,15.85,14.13,35.4,14.13s35.4-6.32,35.4-14.13c0-.13,0-.25,0-.38h0Z"/><path class="cls-3" d="M102.71,46.71c-6.17.28-12.2.53-18.15.71s-11.81.32-17.64.4-11.62.09-17.41-.12S37.9,47.26,32,47.13l.54-.53q-.12,5.32-.07,10.65t.19,10.65L32,67.24h0l.68,0,0,.72a5.47,5.47,0,0,0,.41,2.22,7.79,7.79,0,0,0,1.25,2,14.41,14.41,0,0,0,3.79,3,39.43,39.43,0,0,0,9.28,3.56,78.5,78.5,0,0,0,20,2.22,84,84,0,0,0,19.91-2.49,37.64,37.64,0,0,0,9.15-3.62,14.73,14.73,0,0,0,3.67-2.91A7.58,7.58,0,0,0,101.32,70a5.06,5.06,0,0,0,.39-2l0-1.2,1.1,0h0l-1.09,1.09.44-10.38Zm.21-.22L103.47,57l.44,10.92,0,1-1.13,0h0l1.09-1.16a6.8,6.8,0,0,1-.38,3,9.54,9.54,0,0,1-1.43,2.56,16.4,16.4,0,0,1-4.15,3.68,37.33,37.33,0,0,1-9.76,4.25A71.5,71.5,0,0,1,67.42,84,88.71,88.71,0,0,1,57,83.22a63,63,0,0,1-10.24-2.17,36.31,36.31,0,0,1-9.63-4.31,16.28,16.28,0,0,1-4-3.62,9.68,9.68,0,0,1-1.36-2.44,6.75,6.75,0,0,1-.35-2.82l.66.7h0l-.67,0,0-.64q.16-5.33.19-10.65T31.49,46.6v-.52H32c5.93-.13,11.9-.4,17.91-.57s12-.22,18-.12,11.91.21,17.76.4S97.3,46.21,102.92,46.49Z"/><polygon class="cls-4" points="14.31 42.48 66.83 12.15 119.68 42.67 67.16 72.99 14.31 42.48"/><path class="cls-3" d="M14.11,42.48l12.3-7.84c4.18-2.67,8.47-5.39,12.82-8.1l6.57-4.06,6.67-4c4.45-2.68,9-5.27,13.53-7.75l.88-.48.79.48C72,13.36,76.3,16.1,80.6,18.82s8.62,5.42,13,8,8.78,5.13,13.23,7.6,9,4.85,13.42,7.27l1.63.88-1.63,1c-4.29,2.67-8.56,5.38-12.88,8s-8.64,5.23-13,7.82l-13,7.75c-4.34,2.6-8.73,5.1-13.1,7.63l-1.08.63-1.06-.63c-4.5-2.68-9-5.34-13.49-8.08s-8.89-5.48-13.23-8.24Zm.4,0,7,3.74,7,3.64L42.1,57c4.47,2.33,8.85,4.66,13.19,7s8.63,4.77,12.94,7.18H66.09c4.38-2.52,8.74-5.07,13.16-7.53L92.48,56.2c4.41-2.47,8.82-4.93,13.27-7.34s8.92-4.76,13.38-7.14v1.9c-4.33-2.66-8.62-5.4-13-8S97.36,30.47,92.93,28,84,23.1,79.49,20.74,70.46,16,66,13.6h1.67c-4.22,2.57-8.44,5-12.74,7.41l-6.46,3.57-6.56,3.51Z"/><polygon class="cls-3" points="69.72 40.91 98.72 55.49 93.98 58.41 69.72 40.91"/><polygon class="cls-3" points="97.53 88.07 93.27 90.53 93.27 57.65 97.53 55.19 97.53 88.07"/></g></g></svg>