<svg xmlns="http://www.w3.org/2000/svg" viewBox="0 0 133.99 102.69"><defs><style>.cls-1{fill:#fff;}.cls-2{fill:#ededed;}.cls-3{fill:#575756;}.cls-4{fill:#9d9d9c;}</style></defs><title>presentations</title><g id="Layer_2" data-name="Layer 2"><g id="presentations"><rect class="cls-1" width="133.99" height="102.69"/><rect class="cls-2" x="55.82" y="10.87" width="22.35" height="48.43" rx="9.77" ry="9.77"/><path class="cls-3" d="M68.41,59.5l-2,0c-.65,0-1.31,0-2,0a11.53,11.53,0,0,1-3.91-1,11,11,0,0,1-5.64-6.11,14.91,14.91,0,0,1-.71-4.2c-.08-1.3-.14-2.6-.17-3.9-.06-2.6,0-5.19.1-7.79.26-5.2.9-10.4,1-15.6a11.33,11.33,0,0,1,2.94-7.54,11.09,11.09,0,0,1,7.48-3.58l1.94-.14c.34,0,.64-.05,1-.06s.74,0,1.11,0A10.45,10.45,0,0,1,74,10.73a11.28,11.28,0,0,1,5.7,6.89A15.61,15.61,0,0,1,80.17,22l.09,3.9c.07,2.6.07,5.2,0,7.8s-.09,5.19-.2,7.79-.35,5.2-.61,7.8a11.34,11.34,0,0,1-1.16,4.15,11.22,11.22,0,0,1-2.56,3.29A11.09,11.09,0,0,1,68.41,59.5Zm0-.4A8.5,8.5,0,0,0,75,56a8.34,8.34,0,0,0,1.64-3.2,8.87,8.87,0,0,0,.2-3.48c-.26-2.6-.49-5.2-.61-7.8s-.16-5.2-.19-7.79,0-5.2,0-7.8l.09-3.9A12.29,12.29,0,0,0,76,18.61a8.35,8.35,0,0,0-3.62-5.09,8.78,8.78,0,0,0-3-1.23c-.27,0-.55-.07-.83-.12l-1-.07L65.59,12a8.35,8.35,0,0,0-6.5,2.34,8.63,8.63,0,0,0-2.63,6.59c.13,5.2.77,10.4,1,15.6.13,2.6.16,5.19.1,7.79,0,1.3-.09,2.6-.17,3.9a14.52,14.52,0,0,0,0,3.54,8.68,8.68,0,0,0,3.69,5.87A8.18,8.18,0,0,0,64.54,59,35.32,35.32,0,0,0,68.41,59.1Z"/><path class="cls-4" d="M86.77,47.23H85.48a3.25,3.25,0,0,0-3.2,2.7,15.75,15.75,0,0,1-31,0,3.24,3.24,0,0,0-3.2-2.7h-.82A3.24,3.24,0,0,0,44,51,23.48,23.48,0,0,0,62.17,70s0,0,0,.06V84.31a4.48,4.48,0,0,0,.07.64H58.47a3.44,3.44,0,0,0,0,6.87h17a3.44,3.44,0,1,0,0-6.87H71.76a4.48,4.48,0,0,0,.07-.64V70.06s0,0,0-.06A23.48,23.48,0,0,0,90,51,3.24,3.24,0,0,0,86.77,47.23Z"/><path class="cls-3" d="M86.77,47.28a5.94,5.94,0,0,0-2.69.34,3.2,3.2,0,0,0-1.66,2,16.92,16.92,0,0,1-1.79,5.25A16,16,0,0,1,50.82,50a2.87,2.87,0,0,0-1.33-2,2.91,2.91,0,0,0-1.15-.39,11.52,11.52,0,0,0-1.32,0,3,3,0,0,0-2.14,1.12,2.87,2.87,0,0,0-.55,2.38,23.54,23.54,0,0,0,1.52,5.25,21.19,21.19,0,0,0,2.74,4.75,22.68,22.68,0,0,0,3.79,4,23.09,23.09,0,0,0,9.83,4.74l.14,0V70c0,2.49,0,5,.06,7.48l0,3.74,0,1.86a13.56,13.56,0,0,0,.08,1.83l.06.35h-.37l-2.88,0a10,10,0,0,0-1.38.06,3,3,0,0,0-1.19.48,3.08,3.08,0,0,0-1.32,2.11,3,3,0,0,0,2.9,3.43h2.87l5.77,0,5.76,0,2.87,0a2.89,2.89,0,0,0,2.12-1.05A2.91,2.91,0,0,0,76,85.51a11.39,11.39,0,0,0-1.35,0H71.16l.09-.58a12.9,12.9,0,0,0,.07-1.8v-5.6l0-7.48v-.36l.35-.07a24.26,24.26,0,0,0,7.61-3A23,23,0,0,0,85.45,61a21.63,21.63,0,0,0,3.8-7.35l.29-1,.22-1c.06-.34.15-.68.18-1a3.44,3.44,0,0,0-.11-1A3.24,3.24,0,0,0,86.77,47.28Zm0-.1A3.35,3.35,0,0,1,90,49.56a3.43,3.43,0,0,1,.13,1.06,8.68,8.68,0,0,1-.17,1l-.21,1-.28,1a23.56,23.56,0,0,1-3.66,7.54,23.91,23.91,0,0,1-6.08,5.83,23.48,23.48,0,0,1-7.79,3.35l.35-.44.07,7.49v5.6A14.49,14.49,0,0,1,72.27,85l-.51-.58h2.89a10.19,10.19,0,0,1,1.52.06,3.83,3.83,0,0,1,1.53.6,3.94,3.94,0,0,1-2,7.24h-2.9L67,92.3l-5.77,0-2.9,0a3.83,3.83,0,0,1-2-7,4,4,0,0,1,1.48-.57,11,11,0,0,1,1.5,0l2.88,0-.31.35a13.7,13.7,0,0,1-.05-1.91V81.22l0-3.74L62,70l.14.18A24.15,24.15,0,0,1,45.44,56.53a23.52,23.52,0,0,1-1.68-5.34,3.47,3.47,0,0,1,.61-2.86A3.64,3.64,0,0,1,47,46.89a14,14,0,0,1,1.45,0,3.65,3.65,0,0,1,3.22,2.93,15.33,15.33,0,0,0,1.84,5,15.55,15.55,0,0,0,27,0,16.56,16.56,0,0,0,1.83-5.19A3.37,3.37,0,0,1,84,47.5,6,6,0,0,1,86.77,47.18Z"/></g></g></svg>