<svg xmlns="http://www.w3.org/2000/svg" viewBox="0 0 1525.54 993.06"><defs><style>.cls-1{fill:#fff;}.cls-2{opacity:0.15;}.cls-3{fill:#e329ed;stroke-width:9.94px;}.cls-3,.cls-6,.cls-7,.cls-9{stroke:#000;}.cls-3,.cls-4,.cls-6,.cls-7,.cls-9{stroke-miterlimit:10;}.cls-4{stroke:#9b02a3;stroke-width:5px;}.cls-5{fill:#325d88;}.cls-6{fill:#ffe62d;stroke-width:4px;}.cls-7{fill:#07bc49;stroke-width:3px;}.cls-8,.cls-9{fill:#38c6ff;}.cls-9{stroke-width:2.16px;}</style></defs><title>repair</title><g id="Layer_2" data-name="Layer 2"><g id="Layer_7" data-name="Layer 7"><rect class="cls-1" width="1525.54" height="993.06"/></g><g id="Layer_6" data-name="Layer 6"><g class="cls-2"><path class="cls-3" d="M1218,121.46s24.77-6.79,35.89,17.1c0,0,7.3,3.15-11.33,48.42,0,0-18.62,80.18-12.47,91.92a0,0,0,0,1,0,0c5.17,37.69-30,59.22,30.39,84.93,0,0,10,2.8,18.22,20.42s9.15,23.93,21.15,31.61,21.84,5.51,28.94,25.53,23.65,59.22,2.75,82.53-75.59,76.52-77.84,83.28-65.25,70.69-109.34-9c0,0-27.05-14.84-36.16-16.25s-46-8.21-63.08-54.51c0,0-10.55-55.92-6.22-56.79,0,0,14.29-58.76,88.17-59.77,0,0,22.64-14.66,24.05-44.32,0,0,5.74-30.54,22.49-43.11,0,0,2.55-11.5-1.86-35.13,0,0,1.53-44.29,7.61-57.05,0,0-2.2-11.81,7.45-44.4C1186.84,186.86,1200.85,128.62,1218,121.46Z"/><path class="cls-3" d="M1361.08,143.63s30-1.36,16.47,35.25c0,0-30.74,38.52-32.25,62.92-.38,6.13-6,14.66-11.21,21.44a73.48,73.48,0,0,0-14,30.88,59.2,59.2,0,0,0-1.4,10.34c.25,7.62-26.52,37.27-39.73,28s-19.49-26.89-10.82-49.19,33.2-20.39,45.63-73.18C1313.74,210.13,1346.45,143.51,1361.08,143.63Z"/><path class="cls-3" d="M1442.91,249.16s34.29-1.64,38.44,5.59c9.12,15.9-18.79,43.24-53,69.66-3.5,2.7-10.51,14.93-10.51,14.93s-66.93,100.15-88.09,36.57c0,0,7.54-30.29,16.17-34,0,0,51.35-21.53,55.15-29.51S1434.16,249.27,1442.91,249.16Z"/><path class="cls-3" d="M1477.53,386s26.62,7.79,3.86,37.07c0,0-22.22,15.83-36.46,14.92,0,0-23.4,16.25-30.5,16.78s-26,7.21-7.22-25.94c0,0,17.52-14.17,24.16-17.85S1466.44,384.65,1477.53,386Z"/><path class="cls-3" d="M1395.81,452s-24.46,2.8-31.71,16S1394.14,467.1,1395.81,452Z"/><path class="cls-3" d="M987.35,304.17c-.39-.57-4.83-9.72-3.5-16.19,1.9-9.22,22.26-39.16,62.8,26.63,26.34,42.76-31.71,94.82-51.23,28.44C992.09,331.71,996.12,316.92,987.35,304.17Z"/></g><path class="cls-4" d="M391.87,403.85,344.49,422.3q-5.73-8.37-22.62-29.93t-51.3-66.85l.78-3.1a61.22,61.22,0,0,0,13.5-5.28,55.28,55.28,0,0,0,14-9.61,42.54,42.54,0,0,0,8.69-12.1q2.94-6.36,2.95-16.29a30.09,30.09,0,0,0-4.89-16.9,29,29,0,0,0-13.41-11,48.61,48.61,0,0,0-14.43-3.64q-7.44-.71-14.42-.7H254q-.15,18.47-.23,37.77t-.08,34.66q0,25.29.15,55.3t.32,43.35H202.81q.15-12.25.38-36.06t.24-70.34q0-12.4-.08-35.52t-.54-65.76q4.49,0,18.69-.31t26.44-.31q23.12,0,40.1,1.39a132.42,132.42,0,0,1,32,6.52q21.57,7.13,32,21a50.63,50.63,0,0,1,10.47,31.26q0,19.85-11,34t-22.49,21.25V326q16.08,20.32,34.34,41.34T391.87,403.85Z"/><path class="cls-4" d="M555.36,338.7H447.72a40.79,40.79,0,0,0,6.74,22.1q6.6,10.17,20.09,16.52a83.37,83.37,0,0,0,19.93,6,137.44,137.44,0,0,0,23,1.79q9.93,0,17.22-.31c4.86-.21,8.43-.36,10.7-.47l-4.81,34q-3.25.32-10.93.7c-5.12.25-11,.39-17.61.39q-27,0-48-6t-35.75-18.08a77.54,77.54,0,0,1-20-25.28,72.5,72.5,0,0,1-7.6-33.19q0-18,5.58-32.11t18.15-27A68.9,68.9,0,0,1,450.2,261.3a92,92,0,0,1,61.11-1A60.24,60.24,0,0,1,534,274.49a66.44,66.44,0,0,1,16.29,26.91Q555.36,317.15,555.36,338.7Zm-44.52-20.78q-1.39-15.19-9.38-24.2t-21.95-9q-13.65,0-22.49,8.91t-11.48,24.28Z"/><path class="cls-4" d="M752.65,284q0,23.12-13.2,40.56t-36,25.82a127.82,127.82,0,0,1-28.5,7.14A241.24,241.24,0,0,1,643,360l.31,58H592q.15-14.11.39-38.54t.23-73.45q0-17.52-.15-42.57T592,210.28c5-.11,10.51-.18,16.61-.24s11.75-.07,16.93-.07q33.38,0,52.86,2.94a118.36,118.36,0,0,1,34.39,10.24q19.1,9,29.5,24.43T752.65,284Zm-52.73,3.26a39.38,39.38,0,0,0-5.36-20.79q-5.34-8.84-16.2-14.11a44,44,0,0,0-15.59-4.58,167.09,167.09,0,0,0-16.83-.85h-4.65q0,2.18-.16,18.07T641,290.77v38.32h5a116.53,116.53,0,0,0,16.67-1.32,48.59,48.59,0,0,0,15.13-4.42q10.85-5.28,16.51-13.73T699.92,287.21Z"/><path class="cls-4" d="M984.38,405.63l-50.62,17q-1.6-5.12-8-22.49t-15.13-39.24H831.73q-9.06,22.19-15.45,39.55t-7.82,22.18L760.87,406.4q4.18-9.28,32.34-73.87T847,208.72h52.58q26.67,62.34,54.75,127.22T984.38,405.63Zm-85.77-77q-5.91-15.83-12.94-34.84t-14-37.32l-.62,0q-5.89,15.06-14,37.23t-13.18,34.91l0,.15h54.93Z"/><path class="cls-4" d="M1061.93,418h-51.34q.15-13.18.39-38.16t.23-67.78q0-18-.15-45.52t-.47-56.22h51.34q-.15,21.24-.39,48.93t-.23,49.25q0,43.89.23,67.85T1061.93,418Z"/><path class="cls-4" d="M1306.68,403.85,1259.3,422.3q-5.73-8.37-22.63-29.93t-51.29-66.85l.77-3.1a60.85,60.85,0,0,0,13.5-5.28,55.35,55.35,0,0,0,14-9.61,42.74,42.74,0,0,0,8.69-12.1q2.94-6.36,2.94-16.29a30.09,30.09,0,0,0-4.88-16.9,29,29,0,0,0-13.42-11,48.47,48.47,0,0,0-14.42-3.64c-5-.47-9.77-.7-14.43-.7h-9.3q-.16,18.47-.24,37.77t-.07,34.66q0,25.29.15,55.3T1169,418h-51.34q.15-12.25.39-36.06t.23-70.34q0-12.4-.07-35.52t-.55-65.76q4.5,0,18.69-.31t26.45-.31q23.1,0,40.09,1.39a132.41,132.41,0,0,1,32,6.52q21.56,7.13,32,21a50.63,50.63,0,0,1,10.47,31.26q0,19.85-11,34t-22.5,21.25V326q16.1,20.32,34.35,41.34T1306.68,403.85Z"/></g><g id="Layer_4" data-name="Layer 4"><path class="cls-5" d="M530.38,857.15l-179.85.2-89.93.22-45,.13-11.24,0h-2.81a16.13,16.13,0,0,1-2.91-.2,11.45,11.45,0,0,1-8.6-7.4,14.52,14.52,0,0,1-.41-1.43,12.35,12.35,0,0,1-.2-1.47c-.08-1,0-1.91-.05-2.86l0-11.24-.48-179.86-.1-89.93-.05-45,0-22.49v-5.62a12.15,12.15,0,0,1,12.09-12.07l179.86.19,89.93.22,45,.13,11.24,0h2.81a14.89,14.89,0,0,1,2.94.22,11.51,11.51,0,0,1,8.66,7.52,10.41,10.41,0,0,1,.41,1.45,14.62,14.62,0,0,1,.2,1.48c.07,1,0,1.91,0,2.86l0,11.24-.48,179.86-.1,89.93,0,45,0,22.48v5.62a10.81,10.81,0,0,1-10.78,10.73Zm0,0a10.78,10.78,0,0,0,10.74-10.73V840.8l0-22.48-.05-45-.1-89.93-.48-179.86,0-11.24a14.43,14.43,0,0,0-.59-5.31,10.08,10.08,0,0,0-7.58-6.52,13.51,13.51,0,0,0-2.66-.18H526.8l-11.24,0-45,.13-89.93.22-179.86.19a9.49,9.49,0,0,0-9.44,9.4v5.61l0,22.49-.05,45-.09,89.93-.48,179.86,0,11.24a14.22,14.22,0,0,0,.56,5.34,10.22,10.22,0,0,0,7.64,6.65,13.16,13.16,0,0,0,2.69.2h2.81l11.24,0,45,.12,89.93.23Z"/><path class="cls-5" d="M913.1,857.15l-179.85.2-89.93.22-45,.13-11.24,0H584.3a16.13,16.13,0,0,1-2.91-.2,11.45,11.45,0,0,1-8.6-7.4,14.52,14.52,0,0,1-.41-1.43,14.82,14.82,0,0,1-.2-1.47c-.08-1,0-1.91,0-2.86l0-11.24-.48-179.86-.1-89.93,0-45,0-22.49v-5.62a12.12,12.12,0,0,1,12.08-12.07l179.86.19,89.93.22,45,.13,11.24,0h2.81a14.89,14.89,0,0,1,2.94.22,11.51,11.51,0,0,1,8.66,7.52,10.41,10.41,0,0,1,.41,1.45,14.62,14.62,0,0,1,.2,1.48c.07,1,0,1.91,0,2.86l0,11.24-.48,179.86-.1,89.93-.05,45,0,22.48v5.62a10.81,10.81,0,0,1-10.78,10.73Zm0,0a10.82,10.82,0,0,0,9.29-5.38,10.93,10.93,0,0,0,1.46-5.35V840.8l0-22.48-.05-45-.1-89.93-.48-179.86,0-11.24a14.22,14.22,0,0,0-.59-5.31,9.94,9.94,0,0,0-2.93-4.27,10.11,10.11,0,0,0-4.65-2.25,13.51,13.51,0,0,0-2.66-.18h-2.81l-11.24,0-45,.13-89.93.22-179.86.19a9.49,9.49,0,0,0-9.44,9.4v5.61l0,22.49,0,45-.09,89.93-.48,179.86,0,11.24a14.22,14.22,0,0,0,.56,5.34,10.22,10.22,0,0,0,7.64,6.65,13.16,13.16,0,0,0,2.69.2h2.81l11.24,0,45,.12,89.93.23Z"/><rect class="cls-1" x="954.66" y="479.55" width="351.1" height="377.6" rx="10.76" ry="10.76"/><path class="cls-5" d="M1295,857.15l-179.86.2-89.93.22-45,.13-11.24,0h-2.81a16.13,16.13,0,0,1-2.91-.2,11.46,11.46,0,0,1-8.59-7.4,12.27,12.27,0,0,1-.42-1.43,14.82,14.82,0,0,1-.2-1.47c-.07-1,0-1.91-.05-2.86l0-11.24-.48-179.86-.09-89.93,0-45,0-22.49v-5.62a12.15,12.15,0,0,1,12.08-12.07l179.86.19,89.93.22,45,.13,11.25,0h2.81a15,15,0,0,1,2.94.22,11.55,11.55,0,0,1,8.66,7.52,14.14,14.14,0,0,1,.41,1.45,14.6,14.6,0,0,1,.19,1.48c.07,1,0,1.91,0,2.86l0,11.24L1306,683.42l-.09,89.93,0,45,0,22.48v5.62A10.84,10.84,0,0,1,1295,857.15Zm0,0a10.8,10.8,0,0,0,10.74-10.73V840.8l0-22.48,0-45-.1-89.93-.48-179.86,0-11.24a14,14,0,0,0-.59-5.31,10.08,10.08,0,0,0-7.58-6.52,13.41,13.41,0,0,0-2.65-.18h-2.81l-11.25,0-45,.13-89.93.22-179.86.19a9.47,9.47,0,0,0-8.14,4.71,9.29,9.29,0,0,0-1.29,4.69v5.61l0,22.49-.05,45-.1,89.93-.48,179.86,0,11.24a14.22,14.22,0,0,0,.56,5.34,10.21,10.21,0,0,0,7.65,6.65,13,13,0,0,0,2.68.2H969l11.24,0,45,.12,89.93.23Z"/></g><g id="Layer_2-2" data-name="Layer 2"><path class="cls-6" d="M336.64,526.06l56.83-1a28.28,28.28,0,0,1,21.67,9.5c9.5,10.5,29,47.5,29,47.5l18-10s8.5-3.5,6.5,6.5-21,57.5-21,57.5-5.5,9.5-16.5,8-58.56-9.34-58.56-9.34-10.11-2.66-2.61-9.49l17.67-10.5Z"/><path class="cls-6" d="M319.14,535.9l37,63.83-18.5,32.67s-2.5,7.16-12,3.83-41.84-23.17-41.84-23.17-6.83-3.33-3.16-13.16S319.14,535.9,319.14,535.9Z"/><path class="cls-6" d="M518.5,735.68l-28.17,49.37a28.28,28.28,0,0,1-19.24,13.77c-13.88,2.81-55.65.67-55.65.67l-.6,20.58s-1.33,9.09-8.9,2.27-38.71-47.43-38.71-47.43-5.35-9.59,1.56-18.28,37.94-45.56,37.94-45.56,7.45-7.33,9.5,2.61v20.55Z"/><path class="cls-6" d="M519,715.62l-73.77-.81-18.63-32.59s-4.89-5.81,2.83-12.28,41.29-24.12,41.29-24.12,6.36-4.17,12.93,4S519,715.62,519,715.62Z"/><path class="cls-6" d="M243.68,788.27l-27.86-49.54a28.3,28.3,0,0,1-1.92-23.58c4.73-13.35,28-48.08,28-48.08L224.59,656s-7.11-5.82,2.64-8.81,60.58-8.81,60.58-8.81,11,.33,14.87,10.73,19.57,56,19.57,56,2.46,10.16-7.11,6.8L297.51,701.3Z"/><path class="cls-6" d="M260.64,799l38.62-62.87,37.54.78s7.49-1.2,9.07,8.74-.54,47.82-.54,47.82.31,7.59-10.08,9S260.64,799,260.64,799Z"/></g><g id="Layer_5" data-name="Layer 5"><path class="cls-7" d="M798.91,538.81V528.54s8.53-19.77,22.29-3.68c0,0,14-17,23.07,3.82v10.13l33.15,11.83s2.13,6.4,2.52,7.17S910.37,576,910.37,576v3.3l-31.21,24s-56-4.27-72.69,34.5h27.72l.19,29.66h-19l7-7.95-49.23.2s26.36,32.37-16.67,50.2h37l13.38,14.73H650S599.4,738,639.46,754.38c17.23,7,154.58,17.76,189.41,22.48,26.64,3.62,54.17,78.3,44.22,69.29S855,786.55,798.23,788c-9.31.23-75-5.38-93.09-6.83,0,0-201.37-18.06-79.55-74.28l.9-98s-14.9-65,140.41-53.73Z"/><circle class="cls-8" cx="1131.53" cy="676.53" r="140.63"/><circle class="cls-1" cx="1131.53" cy="676.53" r="128.19"/><rect class="cls-9" x="1058.12" y="706.2" width="18.71" height="43.18"/><rect class="cls-9" x="1140.84" y="706.2" width="18.71" height="43.18"/><rect class="cls-9" x="1099.48" y="681.39" width="18.71" height="67.99"/><rect class="cls-9" x="1181.02" y="666.49" width="18.71" height="82.89"/><rect class="cls-9" x="1080.89" y="640.37" width="8.07" height="43.18" transform="translate(1081.25 -608.96) rotate(58.45)"/><rect class="cls-9" x="1167.63" y="611.16" width="7.57" height="70.18" transform="translate(660.35 -590.14) rotate(38.66)"/><rect class="cls-9" x="1128.21" y="640.37" width="8.07" height="43.18" transform="translate(2313.88 92.81) rotate(123.97)"/><circle class="cls-9" cx="1067.84" cy="673.11" r="14.03"/><circle class="cls-9" cx="1108.84" cy="647.27" r="14.03"/><circle class="cls-9" cx="1150.2" cy="672.77" r="14.03"/><circle class="cls-9" cx="1190.38" cy="622.54" r="18.87"/></g></g></svg>