<svg xmlns="http://www.w3.org/2000/svg" viewBox="0 0 133.99 102.69"><defs><style>.cls-1{fill:#fff;}.cls-2{fill:#dadada;}.cls-3{fill:#575756;}</style></defs><title>research</title><g id="Layer_2" data-name="Layer 2"><g id="research"><rect class="cls-1" width="133.99" height="102.69"/><rect class="cls-2" x="72.42" y="39.81" width="10.85" height="56.46" rx="3.32" ry="3.32" transform="translate(-23.59 48.04) rotate(-30)"/><path class="cls-3" d="M61.91,44.64l3.48-2a3.39,3.39,0,0,1,3.82.1,4.65,4.65,0,0,1,1.25,1.57l1,1.73,2.06,3.46,8.37,13.78L90.29,77,94.41,84l1,1.74c.18.31.33.53.53.92a4.15,4.15,0,0,1,.41,1.23,4.33,4.33,0,0,1-2.08,4.46l-3.5,2a4.33,4.33,0,0,1-2.43.66,4.39,4.39,0,0,1-2.42-.84,5,5,0,0,1-.91-.92,10.31,10.31,0,0,1-.57-1l-1-1.76-2-3.51L73.76,72.82,66,58.69l-3.94-7-1-1.75a5.23,5.23,0,0,1-.81-1.84A3.35,3.35,0,0,1,61.91,44.64Zm0,0a3.31,3.31,0,0,0-1.6,3.42,5.24,5.24,0,0,0,.82,1.82l1,1.74,4.12,6.92,8.37,13.78L83,86.09l2.06,3.47,1,1.73a3.6,3.6,0,0,0,1,1.27,2.39,2.39,0,0,0,2.73,0l3.48-2a2.32,2.32,0,0,0,.93-3.07c-.1-.2-.32-.56-.47-.83l-1-1.75-3.94-7L81.06,63.75,73.31,49.61l-2-3.51-1-1.76c-.16-.29-.32-.59-.5-.87a3.87,3.87,0,0,0-.7-.7,3.35,3.35,0,0,0-3.76-.13Z"/><circle class="cls-1" cx="60" cy="36.75" r="22.66"/><path class="cls-3" d="M79.75,25.34a25.48,25.48,0,0,1,3.06,17.52A21.59,21.59,0,0,1,79,51.35,21.85,21.85,0,0,1,72,57.45,22.6,22.6,0,0,1,63.06,60a25.62,25.62,0,0,1-23.4-11.54,22.85,22.85,0,0,1-2.92-18,23.93,23.93,0,0,1,4-8.51,23.09,23.09,0,0,1,16.07-9.15,21.53,21.53,0,0,1,9.27,1.06A25.32,25.32,0,0,1,79.75,25.34Zm-.26.15a19.91,19.91,0,0,0-5.95-6.4,21.35,21.35,0,0,0-7.93-3.28,23.37,23.37,0,0,0-16.14,2.7,21.88,21.88,0,0,0-10,12.74,22.59,22.59,0,0,0,1.6,16.41,20.91,20.91,0,0,0,5.43,6.66,20.05,20.05,0,0,0,16.34,4.07,23,23,0,0,0,7.85-3.1,24.3,24.3,0,0,0,6.22-5.56,24.6,24.6,0,0,0,4-7.37,21.28,21.28,0,0,0,1.12-8.52A19.83,19.83,0,0,0,79.49,25.49Z"/><path class="cls-3" d="M75.1,32.05a12.65,12.65,0,0,0-1.28-4.63,10.32,10.32,0,0,0-2.95-3.59A9.61,9.61,0,0,0,66.62,22a14.72,14.72,0,0,0-4.81.14,10.33,10.33,0,0,1,4.9-.91A8.84,8.84,0,0,1,71.47,23a9.64,9.64,0,0,1,3.06,4.06A9.45,9.45,0,0,1,75.1,32.05Z"/></g></g></svg>