<svg xmlns="http://www.w3.org/2000/svg" viewBox="0 0 133.99 102.69"><defs><style>.cls-1{fill:#fff;}.cls-2{fill:none;stroke-linecap:round;stroke-width:4px;}.cls-2,.cls-5,.cls-6,.cls-7{stroke:#575756;stroke-miterlimit:10;}.cls-3,.cls-5{fill:#575756;}.cls-4{fill:#ededed;}.cls-6{fill:#878787;}.cls-7{fill:#c6c6c6;}</style></defs><title>reviewing</title><g id="Layer_2" data-name="Layer 2"><g id="reviewing"><rect class="cls-1" width="133.99" height="102.69"/><path class="cls-2" d="M58.17,28.11C67.65,32.92,79,44.39,79,59.53A35.12,35.12,0,1,1,14.64,40.24"/><polygon class="cls-3" points="24.56 30.19 16.86 50.26 14.17 41.25 5.01 39.12 24.56 30.19"/><path class="cls-4" d="M39.06,73.73,66.62,67.9a.62.62,0,0,0,.38-1l-13-18.25a.62.62,0,0,0-1,0L38.4,72.81A.62.62,0,0,0,39.06,73.73Z"/><path class="cls-3" d="M39.05,73.68c3.37-.69,6.7-1.56,10.05-2.39s6.7-1.57,10.07-2.24l5.08-.93,1.27-.23.64-.12a1.93,1.93,0,0,0,.55-.13.37.37,0,0,0,.2-.36.42.42,0,0,0-.06-.21l-.17-.26-.74-1.06c-1.95-2.83-4-5.6-6-8.36s-4.12-5.52-6.14-8.31L53.66,49l0,0-.07,0a.12.12,0,0,0-.12.05L52.82,50,51.5,52.24c-.88,1.48-1.79,2.94-2.68,4.41C47,59.59,45.2,62.51,43.3,65.38L40.46,69.7l-1.4,2.17c-.22.36-.47.73-.66,1.09A.56.56,0,0,0,39.05,73.68Zm0,.1a.67.67,0,0,1-.78-.86c.2-.41.44-.75.65-1.13l1.28-2.24L42.74,65c1.66-3,3.41-6,5.19-8.92.9-1.47,1.77-3,2.68-4.42L52,49.51c.24-.39.42-.69.72-1.14a1.08,1.08,0,0,1,1-.4,1,1,0,0,1,.52.22,1,1,0,0,1,.19.21l.1.14q3,4.23,5.81,8.53c1.93,2.86,3.86,5.7,5.89,8.48l.76,1,.2.27a.75.75,0,0,1,.12.4.8.8,0,0,1-.37.72,2.64,2.64,0,0,1-.68.22l-.63.15-1.25.3-5,1.2c-3.36.76-6.73,1.48-10.13,2S42.43,73.05,39.07,73.78Z"/><rect class="cls-5" x="93.99" y="8.51" width="3.16" height="74.25" rx="1.58" ry="1.58" transform="translate(113.64 150) rotate(-125.35)"/><rect class="cls-6" x="90.56" y="5.1" width="5.2" height="74.25" rx="2.6" ry="2.6" transform="matrix(-0.58, -0.82, 0.82, -0.58, 112.61, 142.64)"/><rect class="cls-7" x="86.14" y="0.12" width="6.95" height="74.25" rx="3.47" ry="3.47" transform="translate(111.09 131.89) rotate(-125.35)"/><rect class="cls-6" x="83.49" y="-4.86" width="5.2" height="74.25" rx="2.6" ry="2.6" transform="translate(109.58 121.15) rotate(-125.35)"/><rect class="cls-5" x="82.19" y="-8.22" width="3.03" height="74.25" rx="1.52" ry="1.52" transform="matrix(-0.58, -0.82, 0.82, -0.58, 108.56, 113.9)"/><path class="cls-3" d="M39,73.75l6.77-1.5a.61.61,0,0,0,.36-1l-3.1-4.38a.62.62,0,0,0-1,0l-3.66,5.89A.61.61,0,0,0,39,73.75Z"/></g></g></svg>