<svg xmlns="http://www.w3.org/2000/svg" viewBox="0 0 133.99 102.69"><defs><style>.cls-1{fill:#fff;}.cls-2{fill:#ededed;}.cls-3{fill:#575756;}.cls-4{fill:#878787;}.cls-5{fill:#706f6f;stroke:#575756;stroke-miterlimit:10;stroke-width:2px;}</style></defs><title>teaching</title><g id="Layer_2" data-name="Layer 2"><g id="teaching"><rect class="cls-1" width="133.99" height="102.69"/><rect class="cls-2" x="19.06" y="16.73" width="92.81" height="63.5"/><path class="cls-3" d="M111.9,80.27l-23.07.2-23.21.13c-7.76,0-15.51.09-23.28.06s-15.53,0-23.28-.11h-.32v-.31l.12-15.87.05-15.88-.13-31.75v-.27h.28l46.4-.22,23.2,0,23.21,0h.5v.5l-.21,31.87Zm-.07-.07-.46-63.47.5.5-23.21,0-23.2,0L19.06,17l.27-.27-.12,31.75.05,15.88.11,15.87-.31-.31c7.71-.06,15.41-.12,23.12-.12s15.41,0,23.13.06L88.5,80Z"/><rect class="cls-3" x="13.13" y="79.98" width="104.66" height="5.21" rx="2.61" ry="2.61"/><rect class="cls-4" x="19.06" y="15.24" width="92.81" height="10.75"/><path class="cls-3" d="M111.9,26l-23,.27c-7.74,0-15.46.13-23.24.1s-15.57-.11-23.33-.18-15.5-.08-23.24,0h-.18V26l-.09-10.76V15h.28l23.2-.19,23.2-.06c7.74,0,15.47,0,23.2.09l23.21.21h.23v.22Zm-.07-.07-.19-10.72.23.23-23.21.21c-7.73.09-15.46.07-23.2.09l-23.2-.07-23.2-.18.27-.28L19.24,26l-.18-.18q11.58.06,23.16,0c7.71-.07,15.37-.19,23.08-.18s15.43.06,23.16.09Z"/><rect class="cls-3" x="34.99" y="39.1" width="60.95" height="3.79" rx="1.89" ry="1.89"/><rect class="cls-3" x="13.13" y="12.16" width="104.66" height="5.21" rx="2.61" ry="2.61"/><rect class="cls-3" x="34.99" y="49.48" width="60.95" height="3.79" rx="1.89" ry="1.89"/><rect class="cls-3" x="59.79" y="85.16" width="11.34" height="1.89" transform="translate(151.57 20.65) rotate(90)"/><circle class="cls-5" cx="65.46" cy="93.21" r="3.43"/></g></g></svg>